<?xml version="1.0" encoding="utf-8"?>
<!-- Svg Vector Icons : http://www.onlinewebfonts.com/icon -->
<!DOCTYPE svg PUBLIC "-//W3C//DTD SVG 1.1//EN" "http://www.w3.org/Graphics/SVG/1.1/DTD/svg11.dtd">
<svg version="1.1" xmlns="http://www.w3.org/2000/svg" xmlns:xlink="http://www.w3.org/1999/xlink" x="0px" y="0px" viewBox="0 0 1000 1000" enable-background="new 0 0 1000 1000" xml:space="preserve">
<metadata> Svg Vector Icons : http://www.onlinewebfonts.com/icon </metadata>
<g><path d="M10,90.3h245l163.3,490h530.8v81.7H336.7l-163.3-490H10L10,90.3z"/><path d="M500,740.8c46.7,0,84.5,37.8,84.5,84.5c0,46.7-37.9,84.5-84.5,84.5c-46.7,0-84.5-37.9-84.5-84.5C415.5,778.6,453.3,740.8,500,740.8z"/><path d="M826.7,740.8c46.7,0,84.5,37.8,84.5,84.5c0,46.7-37.9,84.5-84.5,84.5c-46.7,0-84.5-37.9-84.5-84.5C742.1,778.6,780,740.8,826.7,740.8z"/><path d="M956.1,255l-170.3-1.4v-81.7H990L956.1,255z M581.7,416.9H745v81.7H581.7V416.9z M581.7,294.3H745v81.8H581.7V294.3z M581.7,171.9H745v81.7H581.7V171.9z M426.4,416.9h114.4v81.7l-77.9-0.2L426.4,416.9z M380.3,294.3h160.5v81.9l-124.9-3.4L380.3,294.3z M336.7,171.9h204.2v81.7l-169.2,1.6L336.7,171.9z M909.6,376.4l-123.8-2v-80.1H948L909.6,376.4z M863.5,499.2l-77.7-0.6v-81.7h114.4L863.5,499.2z"/></g>
</svg>